<svg xmlns="http://www.w3.org/2000/svg" viewBox="0 0 74.36 80"><defs><style>.cls-1{fill:#e8c328;stroke:#723915;stroke-miterlimit:10;}.cls-2{fill:#723915;}</style></defs><title>1CCR</title><g id="Camada_2" data-name="Camada 2"><g id="Profile"><rect class="cls-1" x="0.5" y="0.5" width="73.36" height="79" rx="20.25" ry="20.25"/><path class="cls-2" d="M40.89,14.42V60.83a1.86,1.86,0,0,0,.75,1.6,4.37,4.37,0,0,0,2.64.78h7.21V66H24.71V63.21h6.18a3.93,3.93,0,0,0,2.86-.91,3.26,3.26,0,0,0,.93-2.44V24.79A2.33,2.33,0,0,0,33.83,23a3.27,3.27,0,0,0-2.2-.74H23.38V19.66a48.28,48.28,0,0,0,9.42-2,24,24,0,0,0,6.37-3.25Z"/></g></g></svg>