<svg xmlns="http://www.w3.org/2000/svg" viewBox="0 0 74.36 80"><defs><style>.cls-1{fill:#e8c328;stroke:#723915;stroke-miterlimit:10;}.cls-2{fill:#723915;}</style></defs><title>2CCR</title><g id="Camada_2" data-name="Camada 2"><g id="Profile"><rect class="cls-1" x="0.5" y="0.5" width="73.36" height="79" rx="20.25" ry="20.25"/><path class="cls-2" d="M42.24,38a18.51,18.51,0,0,1,9,4.69A14.09,14.09,0,0,1,55.39,53a14,14,0,0,1-4.94,11.17Q44.84,69,35.81,69a22.27,22.27,0,0,1-9.32-1.78,13.2,13.2,0,0,1-5.84-4.81,12.36,12.36,0,0,1-1.94-6.84,7.29,7.29,0,0,1,1.49-4.85A4.7,4.7,0,0,1,24,48.94a4.32,4.32,0,0,1,3.32,1.35A5.24,5.24,0,0,1,28.53,54a4.65,4.65,0,0,1-.64,2.52,6,6,0,0,1-2.27,1.92c-1.16.62-1.74,1.22-1.74,1.78A4.51,4.51,0,0,0,25.12,63a8.38,8.38,0,0,0,3.64,2.43,17.27,17.27,0,0,0,6.08.91q6.36,0,9.41-3.13t3-10q0-7.24-2.61-10.3T37,39.76a23.55,23.55,0,0,0-3.44.32,19,19,0,0,1-2.39.24,3,3,0,0,1-1.88-.5,1.61,1.61,0,0,1,0-2.59,3.49,3.49,0,0,1,2-.46l2.23.08,1.94.08c3.42,0,6-.88,7.72-2.63s2.59-4.45,2.59-8.11q0-6.75-2.46-9.59c-1.65-1.9-4.1-2.85-7.37-2.85a13.69,13.69,0,0,0-7.15,1.62c-1.78,1.07-2.67,2.07-2.67,3,0,.59.51,1.39,1.53,2.38a5.77,5.77,0,0,1,2.19,4.2,3.65,3.65,0,0,1-1.22,2.78,4.37,4.37,0,0,1-3.11,1.13,4.08,4.08,0,0,1-3.3-1.54A6.57,6.57,0,0,1,20.89,23,10.86,10.86,0,0,1,24,15.41q4.38-4.69,12.5-4.69,7.6,0,12.13,4.08a13.1,13.1,0,0,1,4.53,10.12,11.87,11.87,0,0,1-2.44,7.48Q48.24,35.55,42.24,38Z"/></g></g></svg>