<svg xmlns="http://www.w3.org/2000/svg" viewBox="0 0 74.36 80"><defs><style>.cls-1{fill:#e8c328;stroke:#723915;stroke-miterlimit:10;}.cls-2{fill:#723915;}</style></defs><title>3CCR</title><g id="Camada_2" data-name="Camada 2"><g id="Profile"><rect class="cls-1" x="0.5" y="0.5" width="73.36" height="79" rx="20.25" ry="20.25"/><path class="cls-2" d="M24.5,11.72A76.63,76.63,0,0,0,40.92,14a26.36,26.36,0,0,0,5.6-.58,14.84,14.84,0,0,0,3.94-1.33,2.71,2.71,0,0,1,.87-.36c.27,0,.4.2.4.6,0,.92-.6,2.15-1.79,3.67a12.26,12.26,0,0,1-4.87,3.64A17.53,17.53,0,0,1,38,21a52.58,52.58,0,0,1-11.09-1.43L25.59,34.78a31.3,31.3,0,0,1,5.76-2.27,19.76,19.76,0,0,1,5.2-.76,18.08,18.08,0,0,1,13.1,5.17A17.14,17.14,0,0,1,55,49.68,18.41,18.41,0,0,1,49.3,63.55Q43.66,69,34.68,69q-6.88,0-11.19-3.92a12.16,12.16,0,0,1-4.32-9.32,8,8,0,0,1,1.37-5A4.27,4.27,0,0,1,24.06,49a4.52,4.52,0,0,1,3.44,1.41,5.11,5.11,0,0,1,1.33,3.67,4.75,4.75,0,0,1-.65,2.67,4.91,4.91,0,0,1-2.41,1.59c-1.16.45-1.75,1-1.75,1.55a4.69,4.69,0,0,0,1.2,2.8,8.42,8.42,0,0,0,3.59,2.5,14.6,14.6,0,0,0,5.51,1q6.07,0,9.28-3.78t3.2-12.28q0-7.76-3.38-11.33a11.32,11.32,0,0,0-8.62-3.58,13.62,13.62,0,0,0-4.77.88,19.16,19.16,0,0,0-4.77,2.62,8,8,0,0,1-1,3.72,2.22,2.22,0,0,1-1.83.93,1.57,1.57,0,0,1-1.27-.56,2.28,2.28,0,0,1-.48-1.55,5.08,5.08,0,0,1,1.63-3.45,4.11,4.11,0,0,0,.68-.92l.92-11.68Q24.47,18.25,24.5,11.72Z"/></g></g></svg>