<svg xmlns="http://www.w3.org/2000/svg" viewBox="0 0 74.36 80"><defs><style>.cls-1{fill:#e8c328;stroke:#723915;stroke-miterlimit:10;}.cls-2{fill:#723915;}</style></defs><title>5CCR</title><g id="Camada_2" data-name="Camada 2"><g id="Profile"><rect class="cls-1" x="0.5" y="0.5" width="73.36" height="79" rx="20.25" ry="20.25"/><path class="cls-2" d="M27.68,58.54q-1.77,2.28,17.5,2.28a5.06,5.06,0,0,0,4.12-1.51q1.23-1.52,2.81-8.35h2.67L53.52,67H18.91V64.91L30.16,52.12q9.39-10.2,11.28-12.83a29.21,29.21,0,0,0,4-7.25,19.34,19.34,0,0,0,1.23-6.36A10.33,10.33,0,0,0,44,18.2a9.72,9.72,0,0,0-7.31-2.72A13.89,13.89,0,0,0,28.11,18c-2.22,1.68-3.32,3.45-3.32,5.33a2,2,0,0,0,.5,1.47,4.19,4.19,0,0,0,2,.89q3.9.93,3.9,4.56a4.41,4.41,0,0,1-1.31,3.27,4.61,4.61,0,0,1-3.36,1.29,5.2,5.2,0,0,1-4.14-2.18,8.73,8.73,0,0,1-1.78-5.7,13.21,13.21,0,0,1,2-7.17,15,15,0,0,1,6.13-5.3,19.38,19.38,0,0,1,8.81-2.06,19.07,19.07,0,0,1,8.68,2,14.44,14.44,0,0,1,6,5.27,13.37,13.37,0,0,1,2,7.13,15.62,15.62,0,0,1-1,5.41,17.87,17.87,0,0,1-2.93,5.14,49.76,49.76,0,0,1-6.83,7.08L33.32,53A40.19,40.19,0,0,0,27.68,58.54Z"/></g></g></svg>