<svg xmlns="http://www.w3.org/2000/svg" viewBox="0 0 49 49"><defs><style>.cls-1{fill:#723915;}</style></defs><title>InstagramCCR</title><g id="Camada_2" data-name="Camada 2"><g id="Profile"><path class="cls-1" d="M29.19,24.5a4.69,4.69,0,1,1-4.69-4.69A4.69,4.69,0,0,1,29.19,24.5Z"/><path class="cls-1" d="M35.47,16.2a4.78,4.78,0,0,0-2.67-2.67,7.85,7.85,0,0,0-2.62-.48C28.7,13,28.26,13,24.5,13s-4.2,0-5.68.08a7.85,7.85,0,0,0-2.62.48,4.78,4.78,0,0,0-2.67,2.67,7.85,7.85,0,0,0-.48,2.62C13,20.3,13,20.74,13,24.5s0,4.2.08,5.69a7.84,7.84,0,0,0,.48,2.61,4.78,4.78,0,0,0,2.67,2.67,7.85,7.85,0,0,0,2.62.48c1.48.07,1.92.08,5.68.08s4.2,0,5.68-.08a7.85,7.85,0,0,0,2.62-.48,4.74,4.74,0,0,0,2.67-2.67A7.84,7.84,0,0,0,36,30.19C36,28.7,36,28.26,36,24.5s0-4.2-.08-5.68A7.85,7.85,0,0,0,35.47,16.2Zm-11,15.52a7.22,7.22,0,1,1,7.22-7.22A7.22,7.22,0,0,1,24.5,31.72Zm7.51-13A1.69,1.69,0,1,1,33.7,17,1.69,1.69,0,0,1,32,18.68Z"/><path class="cls-1" d="M24.5,0A24.5,24.5,0,1,0,49,24.5,24.5,24.5,0,0,0,24.5,0Zm14,30.3a10.12,10.12,0,0,1-.65,3.42,7.23,7.23,0,0,1-4.11,4.11,10.12,10.12,0,0,1-3.42.65c-1.5.07-2,.09-5.8.09s-4.3,0-5.8-.09a10,10,0,0,1-3.41-.65,7.15,7.15,0,0,1-4.12-4.11,10.12,10.12,0,0,1-.65-3.42c-.07-1.5-.09-2-.09-5.8s0-4.3.09-5.8a10.12,10.12,0,0,1,.65-3.42,7.17,7.17,0,0,1,4.11-4.11,10.12,10.12,0,0,1,3.42-.65c1.5-.07,2-.09,5.8-.09s4.3,0,5.8.09a10.12,10.12,0,0,1,3.42.65,7.17,7.17,0,0,1,4.11,4.11,10.12,10.12,0,0,1,.65,3.42c.07,1.5.09,2,.09,5.8S38.55,28.8,38.48,30.3Z"/></g></g></svg>