<svg xmlns="http://www.w3.org/2000/svg" viewBox="0 0 48.5 48.5"><defs><style>.cls-1{fill:#723915;}</style></defs><title>LinkedInCCR</title><g id="Camada_2" data-name="Camada 2"><g id="Profile"><path class="cls-1" d="M47.88,18.8a24.34,24.34,0,1,0,.62,5.45A23.9,23.9,0,0,0,47.88,18.8ZM15.35,40.32h-7v-21h7Zm-.41-26.1c-4.57,3.37-9.57-1.63-6.2-6.2C13.32,4.65,18.31,9.64,14.94,14.22ZM41,40.32H34V26.8c-2.61-4.36-7-1.93-7,1.14V40.32H20v-21h7V22.1a7.53,7.53,0,0,1,5.84-3.28A8.28,8.28,0,0,1,41,27Z"/></g></g></svg>