<svg xmlns="http://www.w3.org/2000/svg" viewBox="0 0 42.34 52.44"><title>pcdCCR</title><g id="Camada_2" data-name="Camada 2"><g id="Profile"><g id="_Grupo_" data-name="&lt;Grupo&gt;"><path id="_Caminho_" data-name="&lt;Caminho&gt;" d="M19,10.34A5.17,5.17,0,1,0,13.8,5.17,5.17,5.17,0,0,0,19,10.34Z"/><path id="_Caminho_2" data-name="&lt;Caminho&gt;" d="M27,39.62A11.42,11.42,0,1,1,11.38,26V21.17a16,16,0,1,0,19.09,22l-1.8-3.55Z"/><path id="_Caminho_3" data-name="&lt;Caminho&gt;" d="M42,45.75,35.09,32.14a3.06,3.06,0,0,0-2.71-1.66H23.52v-2h7.63a2.23,2.23,0,0,0,1.81-1,2.21,2.21,0,0,0,.46-1.3,2.28,2.28,0,0,0-2.27-2.28H23.52V17.05a4.56,4.56,0,0,0-9.11,0V31.91a4.65,4.65,0,0,0,4.65,4.64H30.52l6.08,12a3,3,0,0,0,2.71,1.66,2.94,2.94,0,0,0,1.37-.33A3,3,0,0,0,42,45.75Z"/></g></g></g></svg>