<svg xmlns="http://www.w3.org/2000/svg" viewBox="0 0 1443 1024"><defs><style>.cls-1{fill:#0f0f28;}.cls-2,.cls-3,.cls-7{fill:#b88f73;}.cls-2{opacity:0.31;}.cls-3{opacity:0.41;}.cls-4{fill:#da6924;}.cls-5{fill:#bd511c;}.cls-6{fill:#eb7231;}.cls-8{fill:#723915;}.cls-9{fill:#fff;opacity:0.21;}</style></defs><title>BackgroundCCR</title><g id="Camada_2" data-name="Camada 2"><g id="Processo_Seletivo_Competências" data-name="Processo Seletivo / Competências"><rect class="cls-1" x="2" width="1441" height="1024"/><path class="cls-2" d="M1137.31,0H3V1024H1092.77A815.07,815.07,0,0,0,1137.31,0Z"/><path class="cls-2" d="M1180,511.5c0,202.73-86.61,385.22-224.84,512.5H11.84q-4.46-4.11-8.84-8.29V7.29Q6.86,3.62,10.76,0H956.24C1093.84,127.23,1180,309.3,1180,511.5Z"/><path class="cls-3" d="M1060,491.5c0,240-146.64,445.72-355.2,532.5H262.2A578.49,578.49,0,0,1,3,810.13V172.87A579.21,579.21,0,0,1,182.07,0H784.93C950,101.41,1060,283.6,1060,491.5Z"/><path class="cls-4" d="M906,485c0,3.36,0,6.72-.12,10.06q-.36,15.35-1.8,30.41a420.15,420.15,0,0,1-26.39,112C816.54,795.73,662.88,908,483,908,292.63,908,131.64,782.25,78.56,609.29a421.14,421.14,0,0,1-17.18-90Q60,502.33,60,485q0-12.93.77-25.67a420.68,420.68,0,0,1,29.76-132.4C153.14,171.61,305.26,62,483,62c176,0,326.91,107.5,390.62,260.42A421.45,421.45,0,0,1,906,485Z"/><path class="cls-5" d="M906,485q0,20.47-1.92,40.47c-158.65,25-533.27,69.35-842.7-6.16Q60,502.33,60,485A421.76,421.76,0,0,1,90.53,326.93c98.63,20.68,423.27,75.72,783.09-4.51A421.45,421.45,0,0,1,906,485Z"/><path class="cls-6" d="M905.88,495.06q-.36,15.35-1.8,30.41a420.15,420.15,0,0,1-26.39,112c-79.21,22.86-290.36,51.4-799.13-28.14a421.14,421.14,0,0,1-17.18-90Q60,502.33,60,485q0-12.93.77-25.67C169.62,475.66,577.41,530.82,905.88,495.06Z"/><path class="cls-7" d="M789.15,777a424.36,424.36,0,0,1-99,75.56c-115.8-5-336.42-12.56-411.23-1.65A424.48,424.48,0,0,1,177.68,771.6l3.8-3S579.32,811.06,789.15,777Z"/><path class="cls-8" d="M669.64,864.7A421.21,421.21,0,0,1,483,908C292.63,908,131.64,782.25,78.56,609.29a421.14,421.14,0,0,1-17.18-90Q60,502.33,60,485q0-12.93.77-25.67a420.68,420.68,0,0,1,29.76-132.4c49.76-123.44,156.06-218,286.82-251.63a422.52,422.52,0,0,0-235.58,354Q141,442.07,141,455q0,17.33,1.38,34.31a421.14,421.14,0,0,0,17.18,90C212.64,752.25,373.63,878,564,878A423.76,423.76,0,0,0,669.64,864.7Z"/><rect class="cls-9" width="1441" height="1024"/></g></g></svg>