<svg xmlns="http://www.w3.org/2000/svg" viewBox="0 0 1441.04 1026"><defs><style>.cls-1{fill:#b88f73;}.cls-2{fill:#c99c7d;}.cls-3{fill:#723915;}.cls-4{fill:#bd511c;}.cls-5{fill:#eb7231;}.cls-6{fill:#da6924;}.cls-7{fill:#f4eded;opacity:0.49;}</style></defs><title>BackgroundCCR</title><g id="Camada_2" data-name="Camada 2"><g id="Login"><rect class="cls-1" y="1.5" width="1440" height="667"/><path class="cls-2" d="M1440,0V198.81c-15.13,12.4-29.27,20.63-41.75,21.52-66.35,4.76-131-18.69-195.38-35.28s-136-25.75-194.88,5.17c-26.32,13.81-48.91,35.13-77.29,44-42,13.14-86.74-3.52-129.47-14.2A477.43,477.43,0,0,0,685.48,205.8c-29.22,0-58.9,2.83-86.07,13.58-18.87,7.47-36.39,18.69-56.18,23.18-59.57,13.53-113.46-35.95-172.29-52.41-36.29-10.15-74.75-7.51-112.31-10.6s-77.47-13.74-101.14-43.07c-6.41-7.93-11.38-17-18-24.7C107.56,74.64,50.64,78.08,0,72V0Z"/><path class="cls-3" d="M1440,511.42V1026H0V511.42H6.38A304.47,304.47,0,0,0,60.85,443c9,20.33,23.43,44,42.05,39,26.29-7,21.23-56.71,39.6-80.48,7.91,25.25,30.07,42.87,52.39,41.67-4.12,22.88-5.24,52.57,6.13,68.26h41.59c6.75-6.05,12.91-13.94,18.2-21.49,2.47,11.25,10.68,18.34,20.2,21.49a37.81,37.81,0,0,0,16.63,1.6,64.25,64.25,0,0,0,8-1.6c12.09-3.13,23.79-9,36.11-10.48,17.72-2.14,35.14,4.85,52.36,10.48l1.84.6c17.82,5.71,37.42,9.47,54.18.2.45-.25.9-.52,1.35-.8,16-9.94,26.05-36.09,16-54,31.27-3.87,53.21,36.62,82.59,50.1a56.18,56.18,0,0,0,11.8,3.93,63.37,63.37,0,0,0,25.48,0c15.51-2.92,31.16-10.5,46.83-19.1,3.7-2,7.41-4.12,11.11-6.22,34.15-19.35,68.21-39.48,100.82-22.79,9.87,5.05,18.55,13.25,28.68,17.49.88.37,1.77.71,2.66,1,37.29,12.87,82-27.23,114.58-1.24,8.91,7.09,16.46,18.93,27.13,19.14,4,.08,7.83-1.6,11.38-4a75.66,75.66,0,0,0,8.34-6.93l53.94-49.9a342.37,342.37,0,0,0,34.64,44.22c4.89,5.29,10.19,10.54,16.58,12.35,21.27,6,36.29-27,57.56-33,13.19-3.75,26.66,3.51,38.63,11.16,10.59,6.78,21.67,14.22,33.44,15.08a30,30,0,0,0,4.64,0,24.74,24.74,0,0,0,14.34-6.7c6.85-6.25,11.1-16,8.44-25.69,3.72,13.45,22.06,6.22,26.4-7s2.43-28.94,8.62-41c1.39,10,17.51,1.59,12.4-6.49l31,30.35c-5.28,10.55-10.73,21.83-10.57,34.17s8.51,25.34,18.64,23.83c12.57-1.87,20.72-23.68,32.94-19.62,4.28,1.42,7.3,5.79,10.09,10l.77,1.18c9,13.74,21.46,26.6,35.11,29.68a26.46,26.46,0,0,0,12.23,0Z"/><path class="cls-4" d="M1440,529V812.5H0v-273c12.82-18.11,27.92-40.6,32.63-43.14a50.1,50.1,0,0,0,18.82,33.9l20.41-27.42c-2.27,12.68,15.57,19.79,27.87,16s22.83-13.2,35.67-14.29c14.33-1.23,27.13,8.13,40.65,13.06,14.8,5.39,30.93,5.5,46.69,5.53l200.7.48c53.86.12,107.93.24,161.28-7.21,18.37-2.57,40.08-10,49.41-24.06a27,27,0,0,0,4.65-16.11,52.31,52.31,0,0,0,6.46,9.89c17.3,20.93,49.66,27.64,77,21.39,20-4.58,38-14.39,55.21-25.68,9.73-6.36,19.22-13.19,28.68-19.8,11.92-8.33,24.71-16.68,39.21-17.93,34-2.93,56.5,31.85,85.2,51.6,7.41,5.1,15.22,9.2,23.76,11.39,8.94,2.3,18.29,2.35,27.53,2.38l97.26.38c20.7.08,48.58-6.58,48.2-27.28a75.74,75.74,0,0,1,39.83,24.11l6.55-18,8.45-23.22a36.3,36.3,0,0,0,10.53,16.5c14.53,13.26,39.37,17.06,60.51,18.16l53.46,2.77c3.21.17,6.64.28,9.4-1.36,3.45-2.05,4.88-6.22,6.61-9.85a38.28,38.28,0,0,1,8-11.1c11.37-11.05,29.2-15.66,44.17-10.06,15.45,5.77,25.91,19.9,38.66,30.37a123,123,0,0,1,10.43,10.55C1428.71,516.71,1434.29,523,1440,529Z"/><path class="cls-5" d="M1440,775.26A55.56,55.56,0,0,1,1422,757c-3.44-5.53,13.56-42.8,18-61.13,1.26-5.2,1.51-8.87,0-9.87-7-4.63-120.68-36.18-129-37-94.53-9.33-72.2-16-167.16-18.52-57-1.5-114.28-.54-171.32-1.82-46.21-1-92.3-3.55-138.07-10C808.8,615,783.26,610.1,757.38,609c-29.19-1.27-58.35,2.28-87.35,5.82l-23.72,2.89L439.72,642.91c-39.18,4.79-78.57,9.58-118,8-30.13-1.22-60-6.18-90.18-7-41.89-1.18-83.34,5.61-124.91,9.57-29.92,2.84-63-3-92.27,2.19A84.91,84.91,0,0,0,0,659.42v207.5c14,3.61,30,3.3,44.7,3.27,77.66-.15,153.47,22.16,230.62,31,178.1,20.54,358.64-30.75,536.77-10.53,55.64,6.32,110.29,19.55,165.8,27,98,13.11,197.43,7.94,296.18,2.75,30.87-1.62,62.09-3.3,91.7-12.19A184.75,184.75,0,0,0,1440,865.08Z"/><path class="cls-6" d="M1440,812V964.76c-122,65.39-250.76,26.31-376.67,9.27-162.8-22-326.5-6.21-488.4,35.9-20.23,5.26-40.54,10.93-60.87,16.07H314.77c-48.16-20-94.81-55.66-143.42-70.63C120.61,939.73,68.74,947,18,931.82a90,90,0,0,1-18-7.67V769c27.2-13,89.13-30.66,117-28,84.39,8.06,166.16-30.4,250-52,57.68-14.86,126.76-40.86,184-20,48.46,17.65,60.92-26.15,95.31-51.31a81.08,81.08,0,0,1,29.74-13.89c98.66-23.24,199-14.76,296.47,24.86q18.13,7.37,36.12,16.17c18.61,9.12,37.13,19.38,56,25.23,24.22,7.48,48.81,7.63,73.29,7.76,76,.4,91,72.78,167,73.18C1340.62,751.19,1410.09,771.51,1440,812Z"/><rect class="cls-7" y="1" width="1440" height="1025"/></g></g></svg>