<svg xmlns="http://www.w3.org/2000/svg" viewBox="0 0 1441.04 1026"><defs><style>.cls-1{fill:#b88f73;}.cls-2{fill:#c99c7d;}.cls-3{fill:#723915;}.cls-4{fill:#bd511c;}.cls-5{fill:#eb7231;}.cls-6{fill:#da6924;}.cls-7{fill:#f4eded;opacity:0.49;}.cls-8{fill:#a09f9f;}.cls-16,.cls-9{fill:#6b6868;}.cls-10,.cls-15{fill:#8c8181;}.cls-11{fill:#706b6b;}.cls-12{fill:#1e1b1b;}.cls-13{fill:#898888;}.cls-14,.cls-22{fill:#938d8d;}.cls-15{opacity:0.15;}.cls-16{opacity:0.08;}.cls-17{fill:none;stroke:#938d8d;}.cls-17,.cls-22{stroke-miterlimit:10;}.cls-18{fill:#777676;}.cls-19{fill:#6dcacc;}.cls-20{fill:#519393;}.cls-21{fill:#bfbebe;}.cls-22{stroke:#000;}</style></defs><title>Background-com-roboCCR</title><g id="Camada_2" data-name="Camada 2"><g id="Login"><rect class="cls-1" y="1.5" width="1440" height="667"/><path class="cls-2" d="M1440,0V198.81c-15.13,12.4-29.27,20.63-41.75,21.52-66.35,4.76-131-18.69-195.38-35.28s-136-25.75-194.88,5.17c-26.32,13.81-48.91,35.13-77.29,44-42,13.14-86.74-3.52-129.47-14.2A477.43,477.43,0,0,0,685.48,205.8c-29.22,0-58.9,2.83-86.07,13.58-18.87,7.47-36.39,18.69-56.18,23.18-59.57,13.53-113.46-35.95-172.29-52.41-36.29-10.15-74.75-7.51-112.31-10.6s-77.47-13.74-101.14-43.07c-6.41-7.93-11.38-17-18-24.7C107.56,74.64,50.64,78.08,0,72V0Z"/><path class="cls-3" d="M1440,511.42V1026H0V511.42H6.38A304.47,304.47,0,0,0,60.85,443c9,20.33,23.43,44,42.05,39,26.29-7,21.23-56.71,39.6-80.48,7.91,25.25,30.07,42.87,52.39,41.67-4.12,22.88-5.24,52.57,6.13,68.26h41.59c6.75-6.05,12.91-13.94,18.2-21.49,2.47,11.25,10.68,18.34,20.2,21.49a37.81,37.81,0,0,0,16.63,1.6,64.25,64.25,0,0,0,8-1.6c12.09-3.13,23.79-9,36.11-10.48,17.72-2.14,35.14,4.85,52.36,10.48l1.84.6c17.82,5.71,37.42,9.47,54.18.2.45-.25.9-.52,1.35-.8,16-9.94,26.05-36.09,16-54,31.27-3.87,53.21,36.62,82.59,50.1a56.18,56.18,0,0,0,11.8,3.93,63.37,63.37,0,0,0,25.48,0c15.51-2.92,31.16-10.5,46.83-19.1,3.7-2,7.41-4.12,11.11-6.22,34.15-19.35,68.21-39.48,100.82-22.79,9.87,5.05,18.55,13.25,28.68,17.49.88.37,1.77.71,2.66,1,37.29,12.87,82-27.23,114.58-1.24,8.91,7.09,16.46,18.93,27.13,19.14,4,.08,7.83-1.6,11.38-4a75.66,75.66,0,0,0,8.34-6.93l53.94-49.9a342.37,342.37,0,0,0,34.64,44.22c4.89,5.29,10.19,10.54,16.58,12.35,21.27,6,36.29-27,57.56-33,13.19-3.75,26.66,3.51,38.63,11.16,10.59,6.78,21.67,14.22,33.44,15.08a30,30,0,0,0,4.64,0,24.74,24.74,0,0,0,14.34-6.7c6.85-6.25,11.1-16,8.44-25.69,3.72,13.45,22.06,6.22,26.4-7s2.43-28.94,8.62-41c1.39,10,17.51,1.59,12.4-6.49l31,30.35c-5.28,10.55-10.73,21.83-10.57,34.17s8.51,25.34,18.64,23.83c12.57-1.87,20.72-23.68,32.94-19.62,4.28,1.42,7.3,5.79,10.09,10l.77,1.18c9,13.74,21.46,26.6,35.11,29.68a26.46,26.46,0,0,0,12.23,0Z"/><path class="cls-4" d="M1440,529V812.5H0v-273c12.82-18.11,27.92-40.6,32.63-43.14a50.1,50.1,0,0,0,18.82,33.9l20.41-27.42c-2.27,12.68,15.57,19.79,27.87,16s22.83-13.2,35.67-14.29c14.33-1.23,27.13,8.13,40.65,13.06,14.8,5.39,30.93,5.5,46.69,5.53l200.7.48c53.86.12,107.93.24,161.28-7.21,18.37-2.57,40.08-10,49.41-24.06a27,27,0,0,0,4.65-16.11,52.31,52.31,0,0,0,6.46,9.89c17.3,20.93,49.66,27.64,77,21.39,20-4.58,38-14.39,55.21-25.68,9.73-6.36,19.22-13.19,28.68-19.8,11.92-8.33,24.71-16.68,39.21-17.93,34-2.93,56.5,31.85,85.2,51.6,7.41,5.1,15.22,9.2,23.76,11.39,8.94,2.3,18.29,2.35,27.53,2.38l97.26.38c20.7.08,48.58-6.58,48.2-27.28a75.74,75.74,0,0,1,39.83,24.11l6.55-18,8.45-23.22a36.3,36.3,0,0,0,10.53,16.5c14.53,13.26,39.37,17.06,60.51,18.16l53.46,2.77c3.21.17,6.64.28,9.4-1.36,3.45-2.05,4.88-6.22,6.61-9.85a38.28,38.28,0,0,1,8-11.1c11.37-11.05,29.2-15.66,44.17-10.06,15.45,5.77,25.91,19.9,38.66,30.37a123,123,0,0,1,10.43,10.55C1428.71,516.71,1434.29,523,1440,529Z"/><path class="cls-5" d="M1440,775.26A55.56,55.56,0,0,1,1422,757c-3.44-5.53,13.56-42.8,18-61.13,1.26-5.2,1.51-8.87,0-9.87-7-4.63-120.68-36.18-129-37-94.53-9.33-72.2-16-167.16-18.52-57-1.5-114.28-.54-171.32-1.82-46.21-1-92.3-3.55-138.07-10C808.8,615,783.26,610.1,757.38,609c-29.19-1.27-58.35,2.28-87.35,5.82l-23.72,2.89L439.72,642.91c-39.18,4.79-78.57,9.58-118,8-30.13-1.22-60-6.18-90.18-7-41.89-1.18-83.34,5.61-124.91,9.57-29.92,2.84-63-3-92.27,2.19A84.91,84.91,0,0,0,0,659.42v207.5c14,3.61,30,3.3,44.7,3.27,77.66-.15,153.47,22.16,230.62,31,178.1,20.54,358.64-30.75,536.77-10.53,55.64,6.32,110.29,19.55,165.8,27,98,13.11,197.43,7.94,296.18,2.75,30.87-1.62,62.09-3.3,91.7-12.19A184.75,184.75,0,0,0,1440,865.08Z"/><path class="cls-6" d="M1440,812V964.76c-122,65.39-250.76,26.31-376.67,9.27-162.8-22-326.5-6.21-488.4,35.9-20.23,5.26-40.54,10.93-60.87,16.07H314.77c-48.16-20-94.81-55.66-143.42-70.63C120.61,939.73,68.74,947,18,931.82a90,90,0,0,1-18-7.67V769c27.2-13,89.13-30.66,117-28,84.39,8.06,166.16-30.4,250-52,57.68-14.86,126.76-40.86,184-20,48.46,17.65,60.92-26.15,95.31-51.31a81.08,81.08,0,0,1,29.74-13.89c98.66-23.24,199-14.76,296.47,24.86q18.13,7.37,36.12,16.17c18.61,9.12,37.13,19.38,56,25.23,24.22,7.48,48.81,7.63,73.29,7.76,76,.4,91,72.78,167,73.18C1340.62,751.19,1410.09,771.51,1440,812Z"/><rect class="cls-7" y="1" width="1440" height="1025"/><polygon class="cls-8" points="867.51 634.76 1246.3 735.43 1215 702 880.82 584.67 867.51 634.76"/><polygon class="cls-9" points="1215 702 1245.07 734.12 881.5 585.5 877.98 595.36 880.82 584.67 1215 702"/><polygon class="cls-8" points="603.62 634.76 224.82 735.43 269 704 590.3 584.67 603.62 634.76"/><polygon class="cls-9" points="269 704 225 736 588 593 604 586 588 586 269 704"/><rect class="cls-10" x="713.5" y="497.5" width="44" height="669" transform="translate(-96.5 1567.5) rotate(-90)"/><rect class="cls-11" x="409" y="839" width="667" height="13"/><rect class="cls-12" x="623" y="684" width="222" height="183"/><rect class="cls-8" x="716" y="322" width="44" height="353"/><rect class="cls-13" x="586" y="585" width="296" height="181"/><rect class="cls-14" x="716" y="232" width="15" height="353"/><rect class="cls-12" x="649" y="627" width="177" height="116" rx="12" ry="12"/><polygon class="cls-15" points="882 762.46 882 766 586 766 586 585.99 882 762.46"/><rect class="cls-16" x="687" y="646" width="98" height="78" rx="12" ry="12"/><polygon class="cls-9" points="1070 602 402 602 454.65 572 1012.41 572 1070 602"/><polygon class="cls-14" points="1072 602 1050 602 992.41 572 1014.41 572 1072 602"/><polyline class="cls-17" points="630 760 640.09 774 650.18 760 660.26 774 670.35 760 680.44 774 690.53 760 700.61 774 710.7 760 720.79 774 730.88 760 740.98 774 751.07 760 761.16 774 771.25 760 781.34 774 791.43 760 801.52 774 811.61 760 821.71 774 831.8 760 841.9 774 852 760"/><polyline class="cls-17" points="630 771.5 640.09 785.5 650.18 771.5 660.26 785.5 670.35 771.5 680.44 785.5 690.53 771.5 700.61 785.5 710.7 771.5 720.79 785.5 730.88 771.5 740.98 785.5 751.07 771.5 761.16 785.5 771.25 771.5 781.34 785.5 791.43 771.5 801.52 785.5 811.61 771.5 821.71 785.5 831.8 771.5 841.9 785.5 852 771.5"/><polyline class="cls-17" points="627 783.5 637.09 797.5 647.18 783.5 657.26 797.5 667.35 783.5 677.44 797.5 687.53 783.5 697.61 797.5 707.7 783.5 717.79 797.5 727.88 783.5 737.98 797.5 748.07 783.5 758.16 797.5 768.25 783.5 778.34 797.5 788.43 783.5 798.52 797.5 808.61 783.5 818.71 797.5 828.8 783.5 838.9 797.5 849 783.5"/><polyline class="cls-17" points="627 795.5 637.09 809.5 647.18 795.5 657.26 809.5 667.35 795.5 677.44 809.5 687.53 795.5 697.61 809.5 707.7 795.5 717.79 809.5 727.88 795.5 737.98 809.5 748.07 795.5 758.16 809.5 768.25 795.5 778.34 809.5 788.43 795.5 798.52 809.5 808.61 795.5 818.71 809.5 828.8 795.5 838.9 809.5 849 795.5"/><polyline class="cls-17" points="627 805.5 637.09 819.5 647.18 805.5 657.26 819.5 667.35 805.5 677.44 819.5 687.53 805.5 697.61 819.5 707.7 805.5 717.79 819.5 727.88 805.5 737.98 819.5 748.07 805.5 758.16 819.5 768.25 805.5 778.34 819.5 788.43 805.5 798.52 819.5 808.61 805.5 818.71 819.5 828.8 805.5 838.9 819.5 849 805.5"/><polyline class="cls-17" points="627 815.5 637.09 829.5 647.18 815.5 657.26 829.5 667.35 815.5 677.44 829.5 687.53 815.5 697.61 829.5 707.7 815.5 717.79 829.5 727.88 815.5 737.98 829.5 748.07 815.5 758.16 829.5 768.25 815.5 778.34 829.5 788.43 815.5 798.52 829.5 808.61 815.5 818.71 829.5 828.8 815.5 838.9 829.5 849 815.5"/><polyline class="cls-17" points="627 825.5 637.09 839.5 647.18 825.5 657.26 839.5 667.35 825.5 677.44 839.5 687.53 825.5 697.61 839.5 707.7 825.5 717.79 839.5 727.88 825.5 737.98 839.5 748.07 825.5 758.16 839.5 768.25 825.5 778.34 839.5 788.43 825.5 798.52 839.5 808.61 825.5 818.71 839.5 828.8 825.5 838.9 839.5 849 825.5"/><polyline class="cls-17" points="627 835.5 637.09 849.5 647.18 835.5 657.26 849.5 667.35 835.5 677.44 849.5 687.53 835.5 697.61 849.5 707.7 835.5 717.79 849.5 727.88 835.5 737.98 849.5 748.07 835.5 758.16 849.5 768.25 835.5 778.34 849.5 788.43 835.5 798.52 849.5 808.61 835.5 818.71 849.5 828.8 835.5 838.9 849.5 849 835.5"/><polyline class="cls-17" points="627 845.5 637.09 859.5 647.18 845.5 657.26 859.5 667.35 845.5 677.44 859.5 687.53 845.5 697.61 859.5 707.7 845.5 717.79 859.5 727.88 845.5 737.98 859.5 748.07 845.5 758.16 859.5 768.25 845.5 778.34 859.5 788.43 845.5 798.52 859.5 808.61 845.5 818.71 859.5 828.8 845.5 838.9 859.5 849 845.5"/><path class="cls-12" d="M1202.5,934.5h-175a12,12,0,0,1-12-12l22.22-100.4a27.55,27.55,0,0,1,26.9-21.6h106.29A19.57,19.57,0,0,1,1190,815.69L1214.5,922.5A12,12,0,0,1,1202.5,934.5Z"/><polyline class="cls-17" points="1084.66 800.23 1068.17 812.9 1079.24 830.51 1062.74 843.18 1073.81 860.79 1057.32 873.46 1068.39 891.07 1051.9 903.75 1062.96 921.36 1046.47 934.04"/><polyline class="cls-17" points="1107.67 800.16 1091.18 812.84 1102.25 830.44 1085.76 843.11 1096.83 860.72 1080.33 873.39 1091.4 891 1074.91 903.68 1085.98 921.29 1069.48 933.97"/><polyline class="cls-17" points="1165.15 799.91 1154.06 817.41 1170.53 829.98 1159.45 847.49 1175.92 860.06 1164.83 877.57 1181.31 890.14 1170.22 907.65 1186.7 920.22 1175.61 937.73"/><polyline class="cls-17" points="1142.14 799.87 1131.05 817.37 1147.53 829.94 1136.44 847.45 1152.91 860.02 1141.83 877.52 1158.3 890.1 1147.21 907.61 1163.69 920.18 1152.6 937.69"/><path class="cls-12" d="M442.5,934.5h-175a12,12,0,0,1-12-12l22.22-100.4a27.55,27.55,0,0,1,26.9-21.6H410.91A19.57,19.57,0,0,1,430,815.69L454.5,922.5A12,12,0,0,1,442.5,934.5Z"/><polyline class="cls-17" points="321.66 799.23 305.17 811.9 316.24 829.51 299.74 842.18 310.81 859.79 294.32 872.46 305.39 890.07 288.9 902.75 299.96 920.36 283.47 933.04"/><polyline class="cls-17" points="344.67 799.16 328.18 811.84 339.25 829.44 322.76 842.11 333.82 859.72 317.33 872.39 328.4 890 311.91 902.68 322.98 920.29 306.48 932.97"/><polyline class="cls-17" points="402.15 798.91 391.06 816.41 407.53 828.98 396.45 846.49 412.92 859.06 401.83 876.57 418.31 889.14 407.22 906.65 423.7 919.22 412.61 936.73"/><polyline class="cls-17" points="379.14 798.87 368.05 816.37 384.53 828.94 373.44 846.45 389.91 859.02 378.83 876.52 395.3 889.1 384.21 906.61 400.69 919.18 389.6 936.69"/><rect class="cls-9" x="589.5" y="212.68" width="56.74" height="82.73" rx="12" ry="12"/><rect class="cls-9" x="825.26" y="211.68" width="56.74" height="82.73" rx="12" ry="12"/><rect class="cls-18" x="714.47" y="131.47" width="45.33" height="45.74" rx="12" ry="12" transform="translate(891.47 -582.8) rotate(90)"/><rect class="cls-9" x="709.26" y="135.68" width="56.74" height="82.73" rx="12" ry="12" transform="translate(914.67 -560.58) rotate(90)"/><path class="cls-14" d="M760,143.67v5h-6v-5a12,12,0,0,0-12-12h6A12,12,0,0,1,760,143.67Z"/><path class="cls-14" d="M779,160.67v32.75a12,12,0,0,1-12,12h-6a12,12,0,0,0,12-12V160.67a12,12,0,0,0-12-12h6A12,12,0,0,1,779,160.67Z"/><rect class="cls-8" x="607.56" y="171.5" width="259.63" height="162.5" rx="43.5" ry="43.5"/><rect class="cls-12" x="636.01" y="193.17" width="203.41" height="120.97" rx="27" ry="27"/><path class="cls-16" d="M832.2,201.65l-185.31,107A27,27,0,0,1,636,287V220a27,27,0,0,1,27-27H812.41A26.88,26.88,0,0,1,832.2,201.65Z"/><ellipse class="cls-19" cx="688.15" cy="252.84" rx="19.99" ry="20.46"/><ellipse class="cls-19" cx="792.13" cy="253.84" rx="19.99" ry="20.46"/><path class="cls-20" d="M794.39,274.16a16.83,16.83,0,0,1-2.26.14,20.47,20.47,0,0,1,0-40.92,16.83,16.83,0,0,1,2.26.14,20.51,20.51,0,0,0,0,40.64Z"/><path class="cls-20" d="M690.41,273.16a16.83,16.83,0,0,1-2.26.14,20.47,20.47,0,0,1,0-40.92,16.83,16.83,0,0,1,2.26.14,20.51,20.51,0,0,0,0,40.64Z"/><path class="cls-14" d="M655.05,334h-15c-18,0-32.53-19.44-32.53-43.41V214.91c0-24,14.57-43.41,32.53-43.41h15c-18,0-32.53,19.44-32.53,43.41v75.68C622.52,314.56,637.09,334,655.05,334Z"/><path class="cls-21" d="M867.19,214.91v75.68c0,24-17.6,43.41-39.33,43.41h-5.43c21.73,0,39.33-19.44,39.33-43.41V214.91c0-24-17.6-43.41-39.33-43.41h5.43C849.59,171.5,867.19,190.94,867.19,214.91Z"/><rect class="cls-14" x="705" y="284" width="72" height="70" rx="19.5" ry="19.5"/><rect class="cls-12" x="717.87" y="291.91" width="47.15" height="53.28" rx="9.25" ry="9.25" transform="translate(1057.46 -423.98) rotate(89.8)"/><rect class="cls-22" x="739.47" y="278.77" width="3.86" height="53.28" rx="1.93" ry="1.93" transform="translate(1044.27 -437.03) rotate(89.8)"/><rect class="cls-22" x="739.5" y="286.5" width="3.86" height="53.28" rx="1.93" ry="1.93" transform="translate(1052.03 -429.36) rotate(89.8)"/><rect class="cls-22" x="739.52" y="295" width="3.86" height="53.28" rx="1.93" ry="1.93" transform="translate(1060.56 -420.91) rotate(89.8)"/><rect class="cls-22" x="739.55" y="303.5" width="3.86" height="53.28" rx="1.93" ry="1.93" transform="translate(1069.09 -412.47) rotate(89.8)"/></g></g></svg>