<svg xmlns="http://www.w3.org/2000/svg" viewBox="0 0 1021.48 806.33"><defs><style>.cls-1{fill:#a09f9f;}.cls-2,.cls-9{fill:#6b6868;}.cls-3,.cls-8{fill:#8c8181;}.cls-4{fill:#706b6b;}.cls-5{fill:#1e1b1b;}.cls-6{fill:#898888;}.cls-15,.cls-7{fill:#938d8d;}.cls-8{opacity:0.15;}.cls-9{opacity:0.08;}.cls-10{fill:none;stroke:#938d8d;}.cls-10,.cls-15{stroke-miterlimit:10;}.cls-11{fill:#777676;}.cls-12{fill:#6dcacc;}.cls-13{fill:#519393;}.cls-14{fill:#bfbebe;}.cls-15{stroke:#000;}</style></defs><title>RoboCCR</title><g id="Camada_2" data-name="Camada 2"><g id="Camada_1-2" data-name="Camada 1"><polygon class="cls-1" points="642.69 503.09 1021.48 603.76 990.18 570.33 656 453 642.69 503.09"/><polygon class="cls-2" points="990.18 570.33 1020.25 602.45 656.68 453.83 653.16 463.69 656 453 990.18 570.33"/><polygon class="cls-1" points="378.79 503.09 0 603.76 44.18 572.33 365.48 453 378.79 503.09"/><polygon class="cls-2" points="44.18 572.33 0.18 604.33 363.18 461.33 379.18 454.33 363.18 454.33 44.18 572.33"/><rect class="cls-3" x="488.68" y="365.83" width="44" height="669" transform="translate(-189.65 1211.01) rotate(-90)"/><rect class="cls-4" x="184.18" y="707.33" width="667" height="13"/><rect class="cls-5" x="398.18" y="552.33" width="222" height="183"/><rect class="cls-1" x="491.18" y="190.33" width="44" height="353"/><rect class="cls-6" x="361.18" y="453.33" width="296" height="181"/><rect class="cls-7" x="491.18" y="100.33" width="15" height="353"/><rect class="cls-5" x="424.18" y="495.33" width="177" height="116" rx="12" ry="12"/><polygon class="cls-8" points="657.18 630.79 657.18 634.33 361.18 634.33 361.18 454.32 657.18 630.79"/><rect class="cls-9" x="462.18" y="514.33" width="98" height="78" rx="12" ry="12"/><polygon class="cls-2" points="845.18 470.33 177.18 470.33 229.83 440.33 787.59 440.33 845.18 470.33"/><polygon class="cls-7" points="847.18 470.33 825.18 470.33 767.59 440.33 789.59 440.33 847.18 470.33"/><polyline class="cls-10" points="405.18 628.33 415.27 642.33 425.36 628.33 435.44 642.33 445.53 628.33 455.62 642.33 465.7 628.33 475.79 642.33 485.88 628.33 495.97 642.33 506.06 628.33 516.15 642.33 526.24 628.33 536.34 642.33 546.43 628.33 556.52 642.33 566.61 628.33 576.7 642.33 586.79 628.33 596.89 642.33 606.98 628.33 617.08 642.33 627.18 628.33"/><polyline class="cls-10" points="405.18 639.83 415.27 653.83 425.36 639.83 435.44 653.83 445.53 639.83 455.62 653.83 465.7 639.83 475.79 653.83 485.88 639.83 495.97 653.83 506.06 639.83 516.15 653.83 526.24 639.83 536.34 653.83 546.43 639.83 556.52 653.83 566.61 639.83 576.7 653.83 586.79 639.83 596.89 653.83 606.98 639.83 617.08 653.83 627.18 639.83"/><polyline class="cls-10" points="402.18 651.83 412.27 665.83 422.36 651.83 432.44 665.83 442.53 651.83 452.62 665.83 462.7 651.83 472.79 665.83 482.88 651.83 492.97 665.83 503.06 651.83 513.15 665.83 523.24 651.83 533.34 665.83 543.43 651.83 553.52 665.83 563.61 651.83 573.7 665.83 583.79 651.83 593.89 665.83 603.98 651.83 614.08 665.83 624.18 651.83"/><polyline class="cls-10" points="402.18 663.83 412.27 677.83 422.36 663.83 432.44 677.83 442.53 663.83 452.62 677.83 462.7 663.83 472.79 677.83 482.88 663.83 492.97 677.83 503.06 663.83 513.15 677.83 523.24 663.83 533.34 677.83 543.43 663.83 553.52 677.83 563.61 663.83 573.7 677.83 583.79 663.83 593.89 677.83 603.98 663.83 614.08 677.83 624.18 663.83"/><polyline class="cls-10" points="402.18 673.83 412.27 687.83 422.36 673.83 432.44 687.83 442.53 673.83 452.62 687.83 462.7 673.83 472.79 687.83 482.88 673.83 492.97 687.83 503.06 673.83 513.15 687.83 523.24 673.83 533.34 687.83 543.43 673.83 553.52 687.83 563.61 673.83 573.7 687.83 583.79 673.83 593.89 687.83 603.98 673.83 614.08 687.83 624.18 673.83"/><polyline class="cls-10" points="402.18 683.83 412.27 697.83 422.36 683.83 432.44 697.83 442.53 683.83 452.62 697.83 462.7 683.83 472.79 697.83 482.88 683.83 492.97 697.83 503.06 683.83 513.15 697.83 523.24 683.83 533.34 697.83 543.43 683.83 553.52 697.83 563.61 683.83 573.7 697.83 583.79 683.83 593.89 697.83 603.98 683.83 614.08 697.83 624.18 683.83"/><polyline class="cls-10" points="402.18 693.83 412.27 707.83 422.36 693.83 432.44 707.83 442.53 693.83 452.62 707.83 462.7 693.83 472.79 707.83 482.88 693.83 492.97 707.83 503.06 693.83 513.15 707.83 523.24 693.83 533.34 707.83 543.43 693.83 553.52 707.83 563.61 693.83 573.7 707.83 583.79 693.83 593.89 707.83 603.98 693.83 614.08 707.83 624.18 693.83"/><polyline class="cls-10" points="402.18 703.83 412.27 717.83 422.36 703.83 432.44 717.83 442.53 703.83 452.62 717.83 462.7 703.83 472.79 717.83 482.88 703.83 492.97 717.83 503.06 703.83 513.15 717.83 523.24 703.83 533.34 717.83 543.43 703.83 553.52 717.83 563.61 703.83 573.7 717.83 583.79 703.83 593.89 717.83 603.98 703.83 614.08 717.83 624.18 703.83"/><polyline class="cls-10" points="402.18 713.83 412.27 727.83 422.36 713.83 432.44 727.83 442.53 713.83 452.62 727.83 462.7 713.83 472.79 727.83 482.88 713.83 492.97 727.83 503.06 713.83 513.15 727.83 523.24 713.83 533.34 727.83 543.43 713.83 553.52 727.83 563.61 713.83 573.7 727.83 583.79 713.83 593.89 727.83 603.98 713.83 614.08 727.83 624.18 713.83"/><path class="cls-5" d="M977.68,802.83h-175a12,12,0,0,1-12-12l22.22-100.4a27.55,27.55,0,0,1,26.9-21.6H946.09A19.56,19.56,0,0,1,965.16,684l24.52,106.81A12,12,0,0,1,977.68,802.83Z"/><polyline class="cls-10" points="859.84 668.56 843.35 681.23 854.41 698.84 837.92 711.51 848.99 729.12 832.5 741.79 843.57 759.4 827.07 772.08 838.14 789.69 821.65 802.37"/><polyline class="cls-10" points="882.85 668.5 866.36 681.16 877.43 698.77 860.93 711.44 872 729.05 855.51 741.72 866.58 759.34 850.09 772.01 861.15 789.62 844.66 802.3"/><polyline class="cls-10" points="940.33 668.24 929.24 685.75 945.71 698.31 934.62 715.82 951.1 728.39 940.01 745.89 956.49 758.47 945.4 775.98 961.87 788.55 950.79 806.06"/><polyline class="cls-10" points="917.32 668.2 906.23 685.7 922.7 698.27 911.62 715.78 928.09 728.35 917 745.86 933.48 758.43 922.39 775.94 938.87 788.51 927.78 806.02"/><path class="cls-5" d="M217.68,802.83h-175a12,12,0,0,1-12-12L52.9,690.43a27.55,27.55,0,0,1,26.9-21.6H186.09A19.56,19.56,0,0,1,205.16,684l24.52,106.81A12,12,0,0,1,217.68,802.83Z"/><polyline class="cls-10" points="96.84 667.56 80.34 680.23 91.41 697.84 74.92 710.51 85.99 728.12 69.5 740.79 80.57 758.4 64.07 771.08 75.14 788.69 58.65 801.37"/><polyline class="cls-10" points="119.85 667.5 103.36 680.16 114.43 697.77 97.93 710.44 109 728.05 92.51 740.72 103.58 758.34 87.09 771.01 98.15 788.62 81.66 801.3"/><polyline class="cls-10" points="177.32 667.24 166.24 684.75 182.71 697.31 171.62 714.82 188.1 727.39 177.01 744.89 193.49 757.47 182.4 774.98 198.87 787.55 187.79 805.06"/><polyline class="cls-10" points="154.32 667.2 143.23 684.7 159.7 697.27 148.62 714.78 165.09 727.35 154 744.86 170.48 757.43 159.39 774.94 175.87 787.51 164.78 805.02"/><rect class="cls-2" x="364.68" y="81.01" width="56.74" height="82.73" rx="12" ry="12"/><rect class="cls-2" x="600.43" y="80.01" width="56.74" height="82.73" rx="12" ry="12"/><rect class="cls-11" x="489.65" y="-0.2" width="45.33" height="45.74" rx="12" ry="12" transform="translate(534.98 -489.64) rotate(90)"/><rect class="cls-2" x="484.43" y="4.01" width="56.74" height="82.73" rx="12" ry="12" transform="translate(558.18 -467.43) rotate(90)"/><path class="cls-7" d="M535.18,12v5h-6V12a12,12,0,0,0-12-12h6A12,12,0,0,1,535.18,12Z"/><path class="cls-7" d="M554.17,29V61.75a12,12,0,0,1-12,12h-6a12,12,0,0,0,12-12V29a12,12,0,0,0-12-12h6A12,12,0,0,1,554.17,29Z"/><rect class="cls-1" x="382.74" y="39.83" width="259.63" height="162.5" rx="43.5" ry="43.5"/><rect class="cls-5" x="411.18" y="61.5" width="203.41" height="120.97" rx="27" ry="27"/><path class="cls-9" d="M607.38,70,422.07,177a27,27,0,0,1-10.89-21.67v-67a27,27,0,0,1,27-27H587.59A26.88,26.88,0,0,1,607.38,70Z"/><ellipse class="cls-12" cx="463.33" cy="121.17" rx="19.99" ry="20.46"/><ellipse class="cls-12" cx="567.31" cy="122.17" rx="19.99" ry="20.46"/><path class="cls-13" d="M569.57,142.49a16.83,16.83,0,0,1-2.26.14,20.47,20.47,0,0,1,0-40.92,16.83,16.83,0,0,1,2.26.14,20.51,20.51,0,0,0,0,40.64Z"/><path class="cls-13" d="M465.59,141.49a16.83,16.83,0,0,1-2.26.14,20.47,20.47,0,0,1,0-40.92,16.83,16.83,0,0,1,2.26.14,20.51,20.51,0,0,0,0,40.64Z"/><path class="cls-7" d="M430.23,202.33h-15c-18,0-32.54-19.44-32.54-43.41V83.24c0-24,14.57-43.41,32.54-43.41h15c-18,0-32.54,19.44-32.54,43.41v75.68C397.69,182.89,412.26,202.33,430.23,202.33Z"/><path class="cls-14" d="M642.37,83.24v75.68c0,24-17.61,43.41-39.33,43.41h-5.43c21.73,0,39.33-19.44,39.33-43.41V83.24c0-24-17.6-43.41-39.33-43.41H603C624.76,39.83,642.37,59.27,642.37,83.24Z"/><rect class="cls-7" x="480.18" y="152.33" width="72" height="70" rx="19.5" ry="19.5"/><rect class="cls-5" x="493.05" y="160.24" width="47.15" height="53.28" rx="9.25" ry="9.25" transform="translate(701.73 -330.38) rotate(89.8)"/><rect class="cls-15" x="514.65" y="147.1" width="3.86" height="53.28" rx="1.93" ry="1.93" transform="translate(688.55 -343.43) rotate(89.8)"/><rect class="cls-15" x="514.67" y="154.83" width="3.86" height="53.28" rx="1.93" ry="1.93" transform="translate(696.31 -335.76) rotate(89.8)"/><rect class="cls-15" x="514.7" y="163.33" width="3.86" height="53.28" rx="1.93" ry="1.93" transform="translate(704.84 -327.31) rotate(89.8)"/><rect class="cls-15" x="514.73" y="171.83" width="3.86" height="53.28" rx="1.93" ry="1.93" transform="translate(713.37 -318.87) rotate(89.8)"/></g></g></svg>