<svg xmlns="http://www.w3.org/2000/svg" viewBox="0 0 361.27 640"><defs><style>.cls-1{fill:#f4eded;}.cls-2{fill:#a09f9f;}.cls-10,.cls-3{fill:#6b6868;}.cls-4,.cls-9{fill:#8c8181;}.cls-5{fill:#706b6b;}.cls-6{fill:#1e1b1b;}.cls-7{fill:#898888;}.cls-16,.cls-8{fill:#938d8d;}.cls-9{opacity:0.15;}.cls-10{opacity:0.08;}.cls-11{fill:none;stroke:#938d8d;}.cls-11,.cls-16{stroke-miterlimit:10;stroke-width:0.43px;}.cls-12{fill:#777676;}.cls-13{fill:#6dcacc;}.cls-14{fill:#519393;}.cls-15{fill:#bfbebe;}.cls-16{stroke:#000;}.cls-17{fill:#da6924;}</style></defs><title>Background-mobileCCR</title><g id="Camada_2" data-name="Camada 2"><g id="Camada_6" data-name="Camada 6"><rect class="cls-1" x="0.41" width="359" height="640"/><polygon class="cls-2" points="358.02 302.95 358.02 324.37 309.86 295.78 304.44 292.56 311.19 279.32 312.56 276.63 312.57 276.61 314.7 272.45 314.76 272.31 315.1 272.55 315.19 272.62 332.84 285.11 358.02 302.95"/><polygon class="cls-3" points="358.02 302.95 358.02 306.72 329.5 284.22 315.13 272.88 314.95 272.75 312.57 276.61 312.56 276.63 314.7 272.45 314.76 272.31 315.1 272.55 315.19 272.62 332.84 285.11 358.02 302.95"/><polygon class="cls-2" points="198.56 264.2 36.56 267.06 57.42 258.2 198.21 241.1 198.56 264.2"/><polygon class="cls-3" points="57.42 258.2 36.58 267.32 196.46 244.45 203.57 243.14 197.15 241.42 57.42 258.2"/><polygon class="cls-4" points="358.02 387.41 358.02 407.62 348.05 404.95 273.56 385 184.49 361.15 110.58 341.35 97 337.71 95.43 337.29 97.6 327.85 99.81 318.25 110.52 321.12 188.88 342.11 277.94 365.96 357.7 387.33 358.02 387.41"/><polygon class="cls-5" points="350.87 398.82 358.02 400.73 358.02 406.71 348.42 404.13 273.76 384.14 184.69 360.28 110.6 340.44 98.84 337.29 100.13 331.66 110.7 334.5 185.99 354.65 275.06 378.51 350.87 398.82"/><polygon class="cls-6" points="183.2 366.77 272.26 390.63 290.5 311.44 201.43 287.59 183.2 366.77"/><polygon class="cls-2" points="257.29 298.42 239.64 293.69 274.81 140.95 292.46 145.67 257.29 298.42"/><polygon class="cls-7" points="315.2 272.58 297.17 350.9 178.42 319.09 196.45 240.78 315.2 272.58"/><polygon class="cls-8" points="289.79 103.61 254.62 256.36 248.61 254.75 283.77 102 289.79 103.61"/><path class="cls-6" d="M272.18,333.64,210.8,317.2a5.4,5.4,0,0,1-3.62-6.48l9.17-39.81a5,5,0,0,1,6-3.9l61.38,16.44a5.41,5.41,0,0,1,3.62,6.48l-9.17,39.81A5,5,0,0,1,272.18,333.64Z"/><polygon class="cls-9" points="297.52 349.37 297.17 350.9 178.42 319.09 196.35 241.2 297.52 349.37"/><path class="cls-10" d="M257.63,321l-29.69-7.95a5.4,5.4,0,0,1-3.62-6.48l5.38-23.36a5,5,0,0,1,6-3.91l29.69,7.95a5.43,5.43,0,0,1,3.62,6.49l-5.38,23.36A5,5,0,0,1,257.63,321Z"/><polygon class="cls-3" points="358.02 278.08 358.02 291.86 332.84 285.11 329.5 284.22 313.51 279.94 311.19 279.32 264.56 266.83 246.91 262.1 205.53 251.02 198.33 249.09 194.76 248.13 186.4 245.89 178.21 243.7 177.77 243.58 120.94 228.36 145.05 221.04 249.9 249.12 249.9 249.12 255.92 250.73 267.55 253.85 358.02 278.08"/><polyline class="cls-11" points="196.75 321.35 199.24 328.24 204.84 323.52 207.33 330.41 212.93 325.69 215.43 332.58 221.03 327.86 223.52 334.75 229.12 330.02 231.61 336.91 237.21 332.19 239.7 339.08 245.31 334.36 247.8 341.25 253.4 336.52 255.9 343.42 261.5 338.69 264 345.58 269.6 340.86 272.09 347.75 277.7 343.03 280.2 349.93 285.81 345.21"/><polyline class="cls-11" points="195.6 326.33 198.09 333.22 203.69 328.5 206.19 335.38 211.79 330.66 214.28 337.55 219.88 332.83 222.38 339.72 227.98 335 230.47 341.89 236.07 337.17 238.56 344.06 244.16 339.33 246.65 346.22 252.25 341.5 254.75 348.39 260.36 343.67 262.85 350.56 268.45 345.84 270.95 352.73 276.55 348.01 279.06 354.9 284.67 350.18"/><polyline class="cls-11" points="193.2 331.2 195.69 338.09 201.3 333.37 203.79 340.25 209.39 335.53 211.88 342.42 217.48 337.7 219.98 344.59 225.58 339.87 228.07 346.76 233.67 342.04 236.16 348.93 241.76 344.2 244.25 351.09 249.86 346.37 252.35 353.26 257.96 348.54 260.45 355.43 266.06 350.71 268.55 357.6 274.15 352.88 276.66 359.77 282.27 355.05"/><polyline class="cls-11" points="192.01 336.39 194.5 343.28 200.1 338.56 202.59 345.45 208.19 340.73 210.69 347.62 216.29 342.89 218.78 349.78 224.38 345.06 226.87 351.95 232.47 347.23 234.96 354.12 240.57 349.4 243.06 356.29 248.66 351.56 251.16 358.45 256.76 353.73 259.25 360.62 264.86 355.9 267.35 362.79 272.96 358.07 275.46 364.96 281.07 360.25"/><polyline class="cls-11" points="191.01 340.72 193.5 347.61 199.1 342.88 201.59 349.77 207.2 345.05 209.69 351.94 215.29 347.22 217.78 354.11 223.39 349.39 225.88 356.28 231.48 351.56 233.97 358.44 239.57 353.72 242.06 360.61 247.66 355.89 250.16 362.78 255.76 358.06 258.26 364.95 263.86 360.23 266.36 367.12 271.96 362.4 274.46 369.29 280.08 364.57"/><polyline class="cls-11" points="190.01 345.04 192.51 351.93 198.11 347.21 200.6 354.1 206.2 349.38 208.69 356.27 214.3 351.55 216.79 358.44 222.39 353.71 224.88 360.6 230.48 355.88 232.97 362.77 238.57 358.05 241.06 364.94 246.67 360.22 249.16 367.11 254.77 362.39 257.26 369.28 262.87 364.56 265.36 371.45 270.97 366.73 273.47 373.62 279.08 368.9"/><polyline class="cls-11" points="189.02 349.37 191.51 356.26 197.11 351.54 199.6 358.43 205.21 353.71 207.7 360.6 213.3 355.87 215.79 362.76 221.4 358.04 223.88 364.93 229.48 360.21 231.97 367.1 237.58 362.38 240.07 369.27 245.67 364.54 248.17 371.44 253.77 366.71 256.27 373.6 261.87 368.88 264.37 375.77 269.97 371.05 272.47 377.94 278.08 373.23"/><polyline class="cls-11" points="188.02 353.7 190.51 360.59 196.12 355.87 198.61 362.75 204.21 358.03 206.7 364.92 212.3 360.2 214.79 367.09 220.4 362.37 222.89 369.26 228.49 364.54 230.98 371.43 236.58 366.7 239.07 373.59 244.68 368.87 247.17 375.76 252.78 371.04 255.27 377.93 260.87 373.21 263.37 380.1 268.97 375.38 271.48 382.27 277.09 377.55"/><polyline class="cls-11" points="187.03 358.02 189.52 364.91 195.12 360.19 197.61 367.08 203.21 362.36 205.7 369.25 211.31 364.53 213.8 371.42 219.4 366.7 221.89 373.58 227.49 368.86 229.98 375.75 235.59 371.03 238.08 377.92 243.68 373.2 246.17 380.09 251.78 375.37 254.27 382.26 259.88 377.54 262.37 384.43 267.98 379.71 270.48 386.6 276.09 381.88"/><path class="cls-6" d="M357.7,387.33l.33-.24V444.6l-8.84-2.36-10.43-2.8a5.39,5.39,0,0,1-3.62-6.48l12.91-28,.37-.82,2.45-5.31,3.19-6.91A11.87,11.87,0,0,1,357.7,387.33Z"/><polyline class="cls-11" points="346.28 441.41 351.85 443.67 346.3 441.34 351.88 443.6 346.33 441.27 351.9 443.53 346.36 441.2 351.94 443.46 346.39 441.13 351.96 443.39 347.39 438.72 353.93 438.65 349.35 433.99 355.89 433.93 351.32 429.26 357.85 429.19 353.28 424.52 359.82 424.45 355.25 419.78"/><polyline class="cls-11" points="361.19 445.86 355.63 443.59 361.17 445.92 355.6 443.65 361.14 445.99 355.57 443.72 361.11 446.05 355.55 443.78 361.08 446.12 355.52 443.85"/><path class="cls-6" d="M104.06,376.58l-70.21-18.8a5.4,5.4,0,0,1-3.62-6.48l18.92-41.06a11.13,11.13,0,0,1,12.94-6.45l42.65,11.42a8.65,8.65,0,0,1,6.14,8.62l-.81,48.85A5,5,0,0,1,104.06,376.58Z"/><polyline class="cls-11" points="69.19 304.95 61.04 308.9 64 317.46 55.85 321.42 58.81 329.98 50.66 333.94 53.62 342.49 45.47 346.45 48.42 355.02 40.27 358.99"/><polyline class="cls-11" points="78.43 307.39 70.28 311.34 73.24 319.9 65.09 323.86 68.05 332.42 59.9 336.38 62.85 344.94 54.71 348.9 57.66 357.47 49.51 361.43"/><polyline class="cls-11" points="101.49 313.56 95.07 319.98 100.66 327.14 94.24 333.57 99.82 340.73 93.4 347.16 98.98 354.32 92.57 360.75 98.15 367.93 91.73 374.36"/><polyline class="cls-11" points="92.26 311.07 85.85 317.49 91.43 324.65 85.01 331.08 90.59 338.24 84.18 344.67 89.76 351.83 83.34 358.26 88.92 365.44 82.51 371.87"/><path class="cls-3" d="M244.66,120.65l-13.14-3.51a5.42,5.42,0,0,1-3.62-6.49l5.85-25.41a5,5,0,0,1,6-3.9l13.14,3.52a5.4,5.4,0,0,1,3.62,6.48l-5.85,25.41A5,5,0,0,1,244.66,120.65Z"/><path class="cls-3" d="M339.34,145.55,326.2,142a5.41,5.41,0,0,1-3.61-6.49l5.85-25.41a5,5,0,0,1,6-3.9l13.13,3.52a5.4,5.4,0,0,1,3.62,6.48l-5.85,25.41A5,5,0,0,1,339.34,145.55Z"/><path class="cls-12" d="M289.75,72.83l2.13-9.23a5,5,0,0,1,6-3.91L306.61,62a5.4,5.4,0,0,1,3.62,6.48l-2.13,9.23a5,5,0,0,1-6,3.9l-8.72-2.33A5.42,5.42,0,0,1,289.75,72.83Z"/><path class="cls-3" d="M279.7,83.19,283,69a5,5,0,0,1,6-3.9l23.56,6.31a5.4,5.4,0,0,1,3.62,6.48l-3.26,14.17a5,5,0,0,1-6,3.9l-23.56-6.31A5.4,5.4,0,0,1,279.7,83.19Z"/><path class="cls-8" d="M310.23,68.51l-.5,2.16L307.32,70l.5-2.16a5.41,5.41,0,0,0-3.62-6.49l2.41.65A5.4,5.4,0,0,1,310.23,68.51Z"/><path class="cls-8" d="M316.15,77.91l-3.26,14.17a5,5,0,0,1-6,3.9l-2.41-.64a5,5,0,0,0,6-3.91l3.27-14.17a5.41,5.41,0,0,0-3.62-6.48l2.4.65A5.4,5.4,0,0,1,316.15,77.91Z"/><path class="cls-2" d="M316.82,157.71l-69.26-18.55c-9.64-2.58-15.51-13.1-13.12-23.5L242,83c2.4-10.4,12.15-16.73,21.79-14.15L333,87.4c9.64,2.58,15.51,13.1,13.12,23.49l-7.53,32.67C336.21,154,326.46,160.29,316.82,157.71Z"/><path class="cls-6" d="M314.27,147.9l-59.94-16.05c-6-1.6-9.63-8.13-8.14-14.58l6.67-29c1.49-6.45,7.54-10.39,13.52-8.78l59.95,16c6,1.6,9.62,8.13,8.14,14.58l-6.67,29C326.31,145.57,320.26,149.51,314.27,147.9Z"/><path class="cls-10" d="M333.42,101.36l-85,26.38a12.77,12.77,0,0,1-2.21-10.55l6.68-29c1.48-6.45,7.54-10.38,13.52-8.78l59.94,16.06A11.29,11.29,0,0,1,333.42,101.36Z"/><ellipse class="cls-13" cx="270.53" cy="108.03" rx="9.11" ry="8.27" transform="translate(147.46 372.05) rotate(-86.78)"/><ellipse class="cls-13" cx="312.14" cy="119.63" rx="9.11" ry="8.27" transform="translate(175.15 424.56) rotate(-86.78)"/><path class="cls-14" d="M311,128.67a7.12,7.12,0,0,1-.92-.18c-4.43-1.19-7.11-6.12-6-11s5.63-7.9,10.06-6.71a6.78,6.78,0,0,1,.9.3c-4.12-.58-8.09,2.34-9.14,6.89S307.14,127.1,311,128.67Z"/><path class="cls-14" d="M269.41,117.06a6,6,0,0,1-.92-.18c-4.43-1.18-7.11-6.11-6-11s5.63-7.89,10.06-6.7a7.16,7.16,0,0,1,.89.3c-4.12-.58-8.09,2.33-9.14,6.89S265.52,115.5,269.41,117.06Z"/><path class="cls-8" d="M249.16,139.59l-6-1.61c-7.21-1.93-11.12-11.91-8.73-22.28L242,83c2.39-10.37,10.17-17.22,17.38-15.29l6,1.61c-7.21-1.93-15,4.91-17.38,15.29l-7.54,32.74C238,127.68,242,137.66,249.16,139.59Z"/><path class="cls-15" d="M346.13,110.86l-7.54,32.74c-2.38,10.37-11.38,16.89-20.1,14.56l-2.18-.59C325,159.91,334,153.39,336.42,143L344,110.27c2.39-10.37-2.74-20.67-11.46-23l2.18.58C343.4,90.18,348.52,100.48,346.13,110.86Z"/><path class="cls-8" d="M288.27,159.25,275,155.71c-4.32-1.16-6.95-5.88-5.88-10.54l3.09-13.41c1.07-4.66,5.44-7.5,9.76-6.34L295.24,129c4.32,1.16,7,5.88,5.88,10.54L298,152.91C297,157.57,292.59,160.41,288.27,159.25Z"/><path class="cls-6" d="M273.26,145.57l2.81-12.41a3.84,3.84,0,0,1,4.63-3l14,3.69a4.17,4.17,0,0,1,2.81,5l-2.82,12.4a3.82,3.82,0,0,1-4.62,3l-14-3.69A4.16,4.16,0,0,1,273.26,145.57Z"/><path class="cls-16" d="M276,133.67h0a.79.79,0,0,1,1-.63l19.84,5.24a.87.87,0,0,1,.59,1h0a.8.8,0,0,1-1,.63l-19.84-5.24A.86.86,0,0,1,276,133.67Z"/><path class="cls-16" d="M275.2,137h0a.8.8,0,0,1,1-.63L296,141.63a.87.87,0,0,1,.59,1h0a.8.8,0,0,1-1,.63l-19.84-5.24A.86.86,0,0,1,275.2,137Z"/><path class="cls-16" d="M274.36,140.7h0a.81.81,0,0,1,1-.63l19.84,5.24a.86.86,0,0,1,.58,1h0a.79.79,0,0,1-1,.63L275,141.74A.87.87,0,0,1,274.36,140.7Z"/><path class="cls-16" d="M273.53,144.38h0a.79.79,0,0,1,1-.63L294.33,149a.87.87,0,0,1,.59,1h0a.79.79,0,0,1-1,.63l-19.84-5.23A.87.87,0,0,1,273.53,144.38Z"/><path class="cls-17" d="M202.78,640v0H0V300.27c3,1,5.61,2.19,8.6,3.23l.39.11.06,0,2,.74q5.12,1.89,10.18,3.95l2,.82,2,.84c1.34.57,2.68,1.14,4,1.73l2.33,1,1.66.75,2,.91,1.81.85,1.37.66c1.52.73,3,1.47,4.54,2.23l1.95,1,.94.49,1.13.59c1.25.66,2.5,1.34,3.74,2l1.91,1.07q6.7,3.79,13.13,8.07,1.81,1.22,3.6,2.47c.61.42,1.2.85,1.8,1.28,21.54,15.52,40.07,36.33,50.07,61.42a119.15,119.15,0,0,1,1.63,82.78c-8.42,23.8-24.72,46-23.25,71.31,1.53,26.59,22.42,47.53,44,62a246.57,246.57,0,0,0,37.88,20.9C188.32,636.57,195.49,639.3,202.78,640Z"/></g></g></svg>