<svg xmlns="http://www.w3.org/2000/svg" viewBox="0 0 1447.53 1026"><defs><style>.cls-1{fill:#f4eded;}.cls-2{fill:#a09f9f;}.cls-10,.cls-3{fill:#6b6868;}.cls-4,.cls-9{fill:#8c8181;}.cls-5{fill:#706b6b;}.cls-6{fill:#1e1b1b;}.cls-7{fill:#898888;}.cls-16,.cls-8{fill:#938d8d;}.cls-9{opacity:0.15;}.cls-10{opacity:0.08;}.cls-11{fill:none;stroke:#938d8d;}.cls-11,.cls-16{stroke-miterlimit:10;}.cls-12{fill:#777676;}.cls-13{fill:#6dcacc;}.cls-14{fill:#519393;}.cls-15{fill:#bfbebe;}.cls-16{stroke:#000;}.cls-17{fill:#da6924;}</style></defs><title>BackgroundCCR</title><g id="Camada_2" data-name="Camada 2"><g id="Camada_6" data-name="Camada 6"><rect class="cls-1" width="1440" height="1026"/><polygon class="cls-2" points="1440 627.91 1440 675.95 1323.49 611.82 1310.36 604.59 1326.7 574.9 1330.01 568.88 1330.05 568.83 1335.19 559.49 1335.35 559.19 1336.17 559.73 1336.39 559.87 1379.07 587.9 1440 627.91"/><polygon class="cls-3" points="1440 627.91 1440 636.36 1371 585.9 1336.24 560.47 1335.81 560.16 1330.05 568.83 1330.01 568.88 1335.19 559.49 1335.35 559.19 1336.17 559.73 1336.39 559.87 1379.07 587.9 1440 627.91"/><polygon class="cls-2" points="1054.24 540.99 662.35 547.4 712.8 527.54 1053.39 489.17 1054.24 540.99"/><polygon class="cls-3" points="712.8 527.54 662.39 548 1049.15 496.7 1066.37 493.76 1050.84 489.9 712.8 527.54"/><polygon class="cls-4" points="1440 817.35 1440 862.68 1415.86 856.69 1235.67 811.94 1020.21 758.44 841.42 714.04 808.55 705.88 804.76 704.94 810.02 683.76 815.36 662.23 841.27 668.66 1030.82 715.74 1246.28 769.24 1439.22 817.16 1440 817.35"/><polygon class="cls-5" points="1422.7 842.93 1440 847.23 1440 860.63 1416.77 854.86 1236.15 810.01 1020.7 756.5 841.46 711.99 813 704.92 816.14 692.31 841.69 698.66 1023.83 743.88 1239.29 797.39 1422.7 842.93"/><rect class="cls-6" x="1035.86" y="617.51" width="222" height="183" transform="translate(204.69 -255.51) rotate(13.95)"/><rect class="cls-2" x="1195.5" y="264.64" width="44" height="353" transform="translate(142.21 -280.43) rotate(13.95)"/><rect class="cls-7" x="1080.46" y="463.95" width="181" height="296" transform="translate(294.83 1600.91) rotate(-76.05)"/><rect class="cls-8" x="1048.62" y="342.79" width="353" height="15" transform="translate(589.88 1454.88) rotate(-76.05)"/><rect class="cls-6" x="1083.57" y="564.02" width="177" height="116" rx="12" ry="12" transform="translate(184.46 -264.15) rotate(13.95)"/><polygon class="cls-9" points="1293.64 732.02 1292.79 735.46 1005.51 664.12 1048.9 489.41 1293.64 732.02"/><rect class="cls-10" x="1121.61" y="582.66" width="98" height="78" rx="12" ry="12" transform="translate(184.33 -263.81) rotate(13.95)"/><polygon class="cls-3" points="1440 572.13 1440 603.03 1379.07 587.9 1371 585.9 1332.31 576.29 1326.7 574.9 1213.91 546.89 1171.21 536.28 1071.1 511.42 1053.68 507.09 1045.04 504.95 1024.82 499.93 1005.02 495.01 1003.94 494.74 866.46 460.6 924.79 444.18 1178.43 507.17 1178.44 507.17 1192.99 510.78 1221.14 517.78 1440 572.13"/><polyline class="cls-11" points="1049.66 668.9 1056.08 684.92 1069.24 673.76 1075.65 689.78 1088.82 678.62 1095.23 694.64 1108.4 683.49 1114.82 699.5 1127.98 688.35 1134.4 704.37 1147.57 693.21 1153.99 709.23 1167.16 698.08 1173.58 714.1 1186.75 702.94 1193.17 718.96 1206.33 707.8 1212.75 723.82 1225.92 712.67 1232.35 728.69 1245.52 717.53 1251.94 733.56 1265.12 722.4"/><polyline class="cls-11" points="1046.89 680.06 1053.3 696.08 1066.47 684.92 1072.88 700.94 1086.05 689.78 1092.46 705.8 1105.63 694.65 1112.05 710.66 1125.21 699.51 1131.63 715.53 1144.8 704.37 1151.22 720.39 1164.39 709.24 1170.81 725.26 1183.97 714.1 1190.4 730.12 1203.56 718.97 1209.98 734.99 1223.15 723.83 1229.57 739.85 1242.74 728.7 1249.17 744.72 1262.35 733.56"/><polyline class="cls-11" points="1041.09 690.98 1047.5 707 1060.66 695.84 1067.08 711.86 1080.24 700.71 1086.66 716.73 1099.83 705.57 1106.24 721.59 1119.41 710.43 1125.83 726.45 1138.99 715.3 1145.41 731.32 1158.58 720.16 1165 736.18 1178.17 725.02 1184.59 741.04 1197.76 729.89 1204.18 745.91 1217.35 734.75 1223.77 750.77 1236.94 739.62 1243.37 755.64 1256.54 744.49"/><polyline class="cls-11" points="1038.2 702.63 1044.61 718.65 1057.77 707.49 1064.19 723.51 1077.35 712.35 1083.77 728.37 1096.93 717.22 1103.35 733.23 1116.52 722.08 1122.94 738.1 1136.1 726.94 1142.52 742.96 1155.69 731.81 1162.11 747.83 1175.28 736.67 1181.7 752.69 1194.87 741.53 1201.29 757.55 1214.45 746.4 1220.88 762.42 1234.05 751.26 1240.48 767.29 1253.65 756.13"/><polyline class="cls-11" points="1035.79 712.33 1042.2 728.35 1055.36 717.2 1061.78 733.21 1074.94 722.06 1081.36 738.08 1094.52 726.92 1100.94 742.94 1114.11 731.78 1120.53 747.8 1133.69 736.65 1140.11 752.67 1153.28 741.51 1159.7 757.53 1172.87 746.38 1179.29 762.4 1192.46 751.24 1198.88 767.26 1212.04 756.11 1218.47 772.13 1231.64 760.97 1238.07 776.99 1251.24 765.84"/><polyline class="cls-11" points="1033.38 722.04 1039.79 738.06 1052.95 726.9 1059.37 742.92 1072.53 731.76 1078.95 747.78 1092.11 736.63 1098.53 752.64 1111.7 741.49 1118.12 757.51 1131.28 746.35 1137.7 762.37 1150.87 751.22 1157.29 767.24 1170.46 756.08 1176.88 772.1 1190.05 760.95 1196.46 776.97 1209.63 765.81 1216.06 781.83 1229.23 770.68 1235.65 786.7 1248.83 775.54"/><polyline class="cls-11" points="1030.96 731.75 1037.38 747.76 1050.54 736.61 1056.96 752.62 1070.12 741.47 1076.54 757.49 1089.7 746.33 1096.12 762.35 1109.29 751.19 1115.71 767.21 1128.87 756.06 1135.29 772.08 1148.46 760.92 1154.88 776.94 1168.05 765.79 1174.47 781.81 1187.64 770.65 1194.05 786.67 1207.22 775.51 1213.65 791.54 1226.82 780.38 1233.24 796.4 1246.42 785.25"/><polyline class="cls-11" points="1028.56 741.45 1034.97 757.47 1048.13 746.31 1054.55 762.33 1067.71 751.17 1074.13 767.19 1087.29 756.04 1093.71 772.05 1106.88 760.9 1113.3 776.92 1126.46 765.76 1132.88 781.78 1146.05 770.63 1152.47 786.65 1165.64 775.49 1172.06 791.51 1185.23 780.36 1191.64 796.38 1204.81 785.22 1211.24 801.24 1224.41 790.09 1230.84 806.11 1244.01 794.96"/><polyline class="cls-11" points="1026.14 751.15 1032.56 767.17 1045.72 756.02 1052.14 772.03 1065.3 760.88 1071.72 776.9 1084.88 765.74 1091.3 781.76 1104.46 770.6 1110.88 786.62 1124.05 775.47 1130.47 791.49 1143.64 780.33 1150.06 796.35 1163.23 785.2 1169.65 801.22 1182.82 790.06 1189.23 806.08 1202.4 794.93 1208.83 810.95 1222 799.79 1228.42 815.81 1241.6 804.66"/><path class="cls-6" d="M1439.22,817.16l.78-.53v129l-21.38-5.31-25.23-6.26a12,12,0,0,1-8.75-14.54l31.22-62.83.91-1.83,5.93-11.93,7.7-15.5A27.47,27.47,0,0,1,1439.22,817.16Z"/><polyline class="cls-11" points="1411.9 938.2 1424.73 943.81 1411.97 938.04 1424.8 943.65 1412.04 937.88 1424.87 943.49 1412.11 937.73 1424.94 943.33 1412.19 937.56 1425.01 943.18 1414.6 932.15 1429.76 932.56 1419.35 921.54 1434.51 921.95 1424.1 910.92 1439.26 911.33 1428.86 900.3 1444.01 900.7 1433.61 889.67"/><polyline class="cls-11" points="1447.33 948.72 1434.52 943.09 1447.27 948.86 1434.45 943.23 1447.21 949 1434.39 943.37 1447.14 949.15 1434.33 943.51 1447.08 949.29 1434.26 943.67"/><path class="cls-6" d="M825.63,793.06,655.79,750.89A12,12,0,0,1,647,736.35l45.76-92.09a27.56,27.56,0,0,1,31.31-14.48L827.28,655.4a19.56,19.56,0,0,1,14.84,19.34l-2,109.57A12,12,0,0,1,825.63,793.06Z"/><polyline class="cls-11" points="740.96 632.66 721.9 640.98 728.4 660.74 709.34 669.06 715.83 688.82 696.77 697.14 703.27 716.9 684.21 725.22 690.71 744.99 671.64 753.32"/><polyline class="cls-11" points="763.31 638.14 744.25 646.46 750.75 666.22 731.69 674.54 738.18 694.3 719.13 702.62 725.62 722.38 706.56 730.7 713.06 750.47 694 758.8"/><polyline class="cls-11" points="819.15 651.75 804.17 666.06 817.13 682.23 802.15 696.55 815.11 712.72 800.13 727.04 813.09 743.21 798.11 757.53 811.07 773.71 796.09 788.03"/><polyline class="cls-11" points="796.83 646.16 781.85 660.48 794.81 676.65 779.83 690.97 792.79 707.14 777.81 721.45 790.77 737.62 775.79 751.95 788.75 768.12 773.77 782.45"/><rect class="cls-3" x="1131.46" y="133.57" width="56.74" height="82.73" rx="12" ry="12" transform="translate(76.35 -274.38) rotate(13.95)"/><rect class="cls-3" x="1360.51" y="189.42" width="56.74" height="82.73" rx="12" ry="12" transform="translate(96.56 -327.94) rotate(13.95)"/><rect class="cls-12" x="1276.95" y="84.04" width="45.33" height="45.74" rx="12" ry="12" transform="translate(1716.59 -1128.63) rotate(103.95)"/><rect class="cls-3" x="1266.25" y="87.7" width="56.74" height="82.73" rx="12" ry="12" transform="translate(1731.9 -1096.28) rotate(103.95)"/><path class="cls-8" d="M1324.37,102.07l-1.2,4.85-5.82-1.45,1.2-4.85a12,12,0,0,0-8.75-14.54l5.82,1.45A12,12,0,0,1,1324.37,102.07Z"/><path class="cls-8" d="M1338.71,123.14l-7.9,31.79a12,12,0,0,1-14.53,8.75l-5.83-1.44a12,12,0,0,0,14.54-8.76l7.89-31.78a12,12,0,0,0-8.75-14.54l5.82,1.45A12,12,0,0,1,1338.71,123.14Z"/><rect class="cls-2" x="1146.31" y="121.23" width="259.63" height="162.5" rx="43.5" ry="43.5" transform="translate(86.42 -301.59) rotate(13.95)"/><rect class="cls-6" x="1174.53" y="142.95" width="203.41" height="120.97" rx="27" ry="27" transform="translate(86.65 -301.59) rotate(13.95)"/><path class="cls-10" d="M1380.47,175.74l-205.63,59.17a27,27,0,0,1-5.35-23.65l16.14-65a27,27,0,0,1,32.71-19.69l145,36A26.85,26.85,0,0,1,1380.47,175.74Z"/><ellipse class="cls-13" cx="1228.33" cy="190.7" rx="20.46" ry="19.99" transform="translate(747.21 1336.87) rotate(-76.05)"/><ellipse class="cls-13" cx="1329.01" cy="216.73" rx="20.46" ry="19.99" transform="translate(798.36 1454.33) rotate(-76.05)"/><path class="cls-14" d="M1326.31,237a15.6,15.6,0,0,1-2.23-.41,20.46,20.46,0,0,1,9.86-39.71,15.09,15.09,0,0,1,2.16.68,20.51,20.51,0,0,0-9.79,39.44Z"/><path class="cls-14" d="M1225.63,211a16.13,16.13,0,0,1-2.23-.41,20.46,20.46,0,0,1,9.87-39.71,15.94,15.94,0,0,1,2.16.68,20.51,20.51,0,0,0-9.8,39.44Z"/><path class="cls-8" d="M1176.65,261.49l-14.52-3.6c-17.44-4.33-26.89-26.71-21.11-50l18.23-73.44c5.78-23.26,24.61-38.62,42-34.29l14.51,3.6c-17.43-4.33-36.26,11-42,34.3l-18.24,73.44C1149.76,234.78,1159.21,257.16,1176.65,261.49Z"/><path class="cls-15" d="M1411.23,197.05,1393,270.49c-5.78,23.26-27.55,37.89-48.64,32.65l-5.26-1.31c21.08,5.24,42.85-9.38,48.63-32.65L1406,195.74c5.78-23.27-6.62-46.38-27.71-51.61l5.27,1.3C1404.61,150.67,1417,173.78,1411.23,197.05Z"/><rect class="cls-8" x="1227.68" y="232.65" width="72" height="70" rx="19.5" ry="19.5" transform="translate(101.76 -296.67) rotate(13.95)"/><rect class="cls-6" x="1240.65" y="240.68" width="47.15" height="53.28" rx="9.25" ry="9.25" transform="translate(1824.37 -897.13) rotate(103.75)"/><rect class="cls-16" x="1265.41" y="227.92" width="3.86" height="53.28" rx="1.93" ry="1.93" transform="translate(1815.84 -915.96) rotate(103.75)"/><rect class="cls-16" x="1263.57" y="235.42" width="3.86" height="53.28" rx="1.93" ry="1.93" transform="translate(1820.86 -904.88) rotate(103.75)"/><rect class="cls-16" x="1261.55" y="243.68" width="3.86" height="53.28" rx="1.93" ry="1.93" transform="translate(1826.38 -892.7) rotate(103.75)"/><rect class="cls-16" x="1259.53" y="251.94" width="3.86" height="53.28" rx="1.93" ry="1.93" transform="translate(1831.91 -880.51) rotate(103.75)"/><path class="cls-17" d="M520.5,1023.45v0H1.5v-841c7.68,2.43,14.35,5.43,22,8l1,.28.16.06,5.08,1.81q13.1,4.71,26.05,9.78l5.18,2,5.16,2.08q5.15,2.1,10.27,4.27c2,.84,4,1.68,5.95,2.54l4.26,1.87c1.7.74,3.39,1.5,5.08,2.26s3.09,1.39,4.63,2.1q1.75.79,3.51,1.62,5.83,2.72,11.62,5.54c1.67.81,3.34,1.64,5,2.47l2.4,1.21,2.88,1.46q4.81,2.46,9.58,5,2.46,1.31,4.9,2.65,17.16,9.38,33.59,20,4.65,3,9.23,6.13c1.54,1,3.07,2.1,4.6,3.16,55.13,38.43,102.54,89.93,128.15,152.05C338.43,485.5,340,560.13,316,625.79c-21.54,58.92-63.26,113.9-59.52,176.53,3.93,65.82,57.4,117.65,112.69,153.56a640.15,640.15,0,0,0,96.95,51.72C483.48,1015,501.83,1021.79,520.5,1023.45Z"/></g></g></svg>